<?xml version="1.0" encoding="UTF-8" standalone="no"?>
<!-- Created with Inkscape (http://www.inkscape.org/) -->

<svg
   version="1.1"
   id="svg1"
   width="1024"
   height="1024"
   viewBox="0 0 1024 1024"
   sodipodi:docname="mountain_black.svg"
   inkscape:version="1.3.2 (091e20e, 2023-11-25, custom)"
   xmlns:inkscape="http://www.inkscape.org/namespaces/inkscape"
   xmlns:sodipodi="http://sodipodi.sourceforge.net/DTD/sodipodi-0.dtd"
   xmlns="http://www.w3.org/2000/svg"
   xmlns:svg="http://www.w3.org/2000/svg">
  <defs
     id="defs1" />
  <sodipodi:namedview
     id="namedview1"
     pagecolor="#ffffff"
     bordercolor="#000000"
     borderopacity="0.25"
     inkscape:showpageshadow="2"
     inkscape:pageopacity="0.0"
     inkscape:pagecheckerboard="0"
     inkscape:deskcolor="#d1d1d1"
     inkscape:zoom="0.78027344"
     inkscape:cx="491.49437"
     inkscape:cy="512"
     inkscape:window-width="1920"
     inkscape:window-height="1013"
     inkscape:window-x="1219"
     inkscape:window-y="1341"
     inkscape:window-maximized="1"
     inkscape:current-layer="g1" />
  <g
     inkscape:groupmode="layer"
     inkscape:label="Image"
     id="g1">
    <path
       style="fill:#000000;stroke-width:1.137;stroke:none;stroke-dasharray:none"
       d="m 466.83065,826.95085 c -15.53878,-1.16571 -48.89526,-5.35195 -62.14654,-7.79935 -22.21158,-4.10238 -40.56066,-8.5823 -39.4578,-9.63378 0.52799,-0.50342 11.70674,-4.35665 24.84168,-8.56275 36.86995,-11.80653 96.46991,-32.40705 134.76109,-46.5797 85.0663,-31.48542 120.9113,-40.83755 185.47953,-48.39252 37.41686,-4.37806 112.97124,-4.04482 149.77617,0.6606 60.86417,7.7813 109.04598,22.71406 148.52182,46.03058 10.8795,6.42602 16.425,10.78687 15.2347,11.98016 -0.439,0.44003 -10.6741,-0.15611 -22.7446,-1.3248 -17.22419,-1.66764 -31.48969,-2.12178 -66.2982,-2.11055 -39.84125,0.0128 -46.31786,0.27992 -63.68456,2.62612 -30.62,4.13672 -65.84796,11.67091 -128.37948,27.45649 -31.96893,8.0703 -65.54572,16.22797 -74.61508,18.12811 -40.62055,8.51059 -82.67884,14.81342 -114.29107,17.1278 -14.44347,1.0574 -74.52552,1.32922 -86.99766,0.39359 z m -225.7339,-45.65684 c 0.62833,-0.67207 8.81633,-4.00973 18.19559,-7.41698 88.99485,-32.32964 130.93199,-55.444 192.1833,-105.925 10.78183,-8.88597 10.96333,-9.11451 7.79511,-9.81617 -1.78405,-0.39509 -7.6893,-0.77891 -13.12277,-0.85292 l -9.87903,-0.13454 -11.31787,7.9873 c -78.68276,55.52832 -184.49029,91.23285 -282.79801,95.42959 -36.02646,1.53796 -121.13641,2.4977 -132.4866569,1.49396 L 5.8296312e-6,761.20444 10.803638,753.7232 c 5.941997,-4.11468 19.247524,-13.28957 29.567836,-20.38863 48.465738,-33.33824 81.980756,-61.39258 128.886186,-107.88645 42.4792,-42.10646 57.84265,-59.02397 87.39714,-96.23747 14.3095,-18.01779 37.58741,-48.69041 46.38931,-61.12582 2.1029,-2.97099 4.23478,-5.40181 4.73751,-5.40181 0.98284,0 18.0332,23.62272 18.0332,24.98441 0,0.44982 -4.10714,23.50308 -9.12698,51.22946 -5.01982,27.72639 -8.94339,50.96235 -8.71901,51.63547 0.36123,1.0837 28.52763,-35.87215 41.75337,-54.78268 2.73403,-3.90919 5.25404,-7.10761 5.60002,-7.10755 0.34597,5e-5 3.61558,4.37898 7.26579,9.73097 4.47567,6.56223 7.24512,9.61373 8.50496,9.37109 1.88273,-0.36257 11.58307,-15.02683 11.58307,-17.51044 0,-0.73478 -8.49834,-12.97091 -18.88518,-27.19142 -10.38685,-14.22049 -19.89606,-27.56876 -21.13157,-29.66281 l -2.2464,-3.80737 24.13231,-38.41423 c 13.27278,-21.1278 46.65005,-74.49265 74.17171,-118.58854 27.52168,-44.09587 55.4332,-88.56036 62.02562,-98.80997 11.95938,-18.59392 11.9908,-18.63004 14.02288,-16.12049 1.12018,1.38334 19.03699,29.72769 39.81516,62.98741 20.77817,33.25974 59.21399,94.68567 85.41292,136.50207 l 47.63441,76.02986 -4.59448,6.41891 c -2.52697,3.53042 -10.30406,14.78196 -17.28243,25.00342 -14.23522,20.85082 -13.79748,18.63696 -5.77516,29.20788 2.28979,3.01722 4.70774,5.66326 5.3732,5.88009 0.66549,0.2168 13.91741,-17.28998 29.44874,-38.90398 15.53133,-21.61401 28.59825,-39.15238 29.0376,-38.97418 0.43936,0.17821 6.21318,7.48852 12.83069,16.24515 42.14077,55.76267 122.97297,146.37178 179.17246,200.84396 10.28974,9.97348 18.50929,18.31582 18.26568,18.53853 -0.24361,0.22271 -8.63093,-1.58514 -18.63851,-4.01749 -10.00757,-2.43233 -25.8702,-5.97872 -35.25027,-7.88088 -9.38007,-1.90215 -18.1483,-4.17506 -19.48499,-5.05087 -1.33667,-0.87585 -19.21521,-20.81025 -39.73009,-44.2987 -20.51486,-23.48845 -37.6875,-42.70626 -38.16139,-42.70626 -0.47391,0 0.4116,3.71018 1.96776,8.24486 2.12771,6.20017 22.05635,73.10303 22.05355,74.03641 -2.9e-4,0.0921 -21.73109,0.15098 -48.29069,0.13076 l -48.29017,-0.0367 -4.49947,-6.42321 c -2.47473,-3.53277 -33.77077,-49.72641 -69.54681,-102.65257 -35.77604,-52.92613 -65.19724,-96.07675 -65.38047,-95.89026 -2.01929,2.05533 -27.98217,71.81524 -27.46654,73.80011 0.25943,0.99872 15.04839,25.56277 32.86434,54.58678 35.6356,58.05399 43.53661,71.34585 42.82989,72.05257 -0.44402,0.44401 -85.7504,-63.17302 -96.30371,-71.81829 -2.69255,-2.20572 -5.07468,-3.82522 -5.29365,-3.5989 -0.21895,0.22634 8.31349,18.32281 18.96097,40.21438 25.14942,51.70803 31.597,65.77407 30.61715,66.79453 -1.98113,2.0633 -81.22098,34.32521 -108.30115,44.09401 -43.97251,15.86248 -111.33073,29.99169 -156.82685,32.89637 -32.0214,2.04436 -62.08585,2.73592 -60.83635,1.39935 z M 452.3439,467.51622 c 7.80833,-10.47667 24.30182,-32.86578 36.65217,-49.75357 27.82586,-38.04888 33.49741,-45.11306 35.87489,-44.68403 1.01273,0.18275 5.35806,4.37521 9.65629,9.31654 4.29824,4.94137 7.97552,8.5026 8.17177,7.91388 0.19624,-0.5887 -4.51751,-19.21652 -10.47499,-41.39516 -5.95748,-22.17863 -12.48931,-46.8467 -14.51518,-54.81792 -2.02586,-7.97122 -4.03109,-14.49605 -4.45604,-14.49961 -0.42495,-0.003 -3.31254,6.51836 -6.41685,14.49314 -5.63427,14.47406 -39.18462,107.42457 -48.52261,134.43081 -5.9019,17.06874 -14.04002,39.78535 -18.04419,50.36817 -1.59744,4.22195 -2.72844,7.67626 -2.51333,7.67626 0.2151,0 6.77973,-8.57182 14.58807,-19.04851 z"
       id="path1" />
  </g>
</svg>
